# xmcd
#
# Track frame offsets:
#	150
#	16310
#	35835
#	57342
#	74977
#	93257
#	107065
#	125580
#	145362
#	163575
#
# Disc length: 2433 seconds
#
# Revision: 1
# Processed by: cddbd v1.5.2PL0 Copyright (c) Steve Scherf et al.
# Submitted via: EasyCDDAExtractor 15.3.0.1
#
DISCID=95097f0a
DTITLE=Milly Quezada - Tesoros De Mi Tierra
DYEAR=2000
DGENRE=Latin
TTITLE0=Pena
TTITLE1=Pideme (Duo Con Fernandito Villalona)
TTITLE2=Que Se Mueran De Envidia
TTITLE3=Mesita De Noche
TTITLE4=Dos Rosas
TTITLE5=Antologia De Caricias
TTITLE6=Un Nuevo Amor
TTITLE7=Burbujas De Amor
TTITLE8=Pideme (Version Merengue)
TTITLE9=Un Nuevo Amor (Version Merengue)
EXTD=
EXTT0=
EXTT1=
EXTT2=
EXTT3=
EXTT4=
EXTT5=
EXTT6=
EXTT7=
EXTT8=
EXTT9=
PLAYORDER=
